<svg width="456" height="456" viewBox="0 0 456 456" fill="none" xmlns="http://www.w3.org/2000/svg">
<path fill-rule="evenodd" clip-rule="evenodd" d="M380 0C391.046 0 400 8.95431 400 20V226.753C433.749 249.136 456 287.47 456 331C456 400.036 400.036 456 331 456C287.47 456 249.136 433.749 226.753 400H20C8.95431 400 0 391.046 0 380V20C0 8.95431 8.95431 0 20 0H380ZM207.435 350C206.49 343.805 206 337.459 206 331C206 325.579 206.345 320.239 207.014 315H105C93.9543 315 85 306.046 85 295V105C85 93.9543 93.9543 85 105 85H295C306.046 85 315 93.9543 315 105V207.014C320.239 206.345 325.579 206 331 206C337.459 206 343.805 206.49 350 207.435V70C350 58.9543 341.046 50 330 50H70C58.9543 50 50 58.9543 50 70V330C50 341.046 58.9543 350 70 350H207.435ZM242.681 167.965L286.592 214.118C252.151 227.211 224.995 255.09 212.879 290H130.611L242.681 167.965ZM290 130V174.177L253.354 135.661L242.293 124.035L231.439 135.854L198.816 171.378L181.495 110H270C281.046 110 290 118.954 290 130ZM149.006 110H130C118.954 110 110 118.954 110 130V144.87L149.006 110ZM110 268.09V185.11L159.126 141.193L174.971 197.343L110 268.09ZM421 331C421 380.706 380.706 421 331 421C281.294 421 241 380.706 241 331C241 281.294 281.294 241 331 241C380.706 241 421 281.294 421 331ZM246 331C246 322.716 252.716 316 261 316H316V261C316 252.716 322.716 246 331 246C339.284 246 346 252.716 346 261V316H401C409.284 316 416 322.716 416 331C416 339.284 409.284 346 401 346H346V401C346 409.284 339.284 416 331 416C322.716 416 316 409.284 316 401V346H261C252.716 346 246 339.284 246 331Z" fill="black"/>
</svg>
